<svg width="66" height="48" viewBox="0 0 66 48" fill="none" xmlns="http://www.w3.org/2000/svg" xmlns:xlink="http://www.w3.org/1999/xlink">
<path d="M10.988,24.056L17.228,23.047C20.151,23.047 22.737,24.056 24.986,26.075C27.347,27.982 28.527,30.843 28.527,34.657C28.527,38.359 27.29,41.5 24.817,44.08C22.344,46.66 18.858,47.95 14.361,47.95C9.977,47.95 6.323,46.268 3.4,42.902C0.589,39.537 -0.817,35.218 -0.817,29.946C-0.817,24.561 1.207,19.232 5.255,13.96C9.414,8.688 15.317,4.313 22.962,0.835L24.142,3.696C13.574,9.529 8.29,15.418 8.29,21.364C8.29,23.159 9.19,24.056 10.988,24.056ZM48.09,24.056L54.329,23.047C57.252,23.047 59.838,24.056 62.087,26.075C64.448,27.982 65.628,30.843 65.628,34.657C65.628,38.359 64.392,41.5 61.918,44.08C59.445,46.66 55.96,47.95 51.462,47.95C47.078,47.95 43.424,46.268 40.501,42.902C37.69,39.537 36.285,35.218 36.285,29.946C36.285,24.561 38.308,19.232 42.356,13.96C46.516,8.688 52.418,4.313 60.063,0.835L61.244,3.696C50.675,9.529 45.391,15.418 45.391,21.364C45.391,23.159 46.291,24.056 48.09,24.056Z" stroke="#030303" stroke-width="0.766" stroke-miterlimit="3.999327"/>
</svg>
