<svg width="108" height="76" viewBox="0 0 108 76" fill="none" xmlns="http://www.w3.org/2000/svg" xmlns:xlink="http://www.w3.org/1999/xlink">
<path d="M18.847,37.073L28.808,35.461C33.475,35.461 37.604,37.073 41.193,40.296C44.963,43.341 46.847,47.908 46.847,53.997C46.847,59.907 44.873,64.922 40.924,69.041C36.975,73.16 31.411,75.22 24.231,75.22C17.231,75.22 11.398,72.534 6.731,67.161C2.244,61.788 0,54.893 0,46.475C0,37.879 3.231,29.372 9.693,20.954C16.334,12.537 25.757,5.552 37.963,0L39.847,4.567C22.975,13.88 14.539,23.282 14.539,32.774C14.539,35.64 15.975,37.073 18.847,37.073ZM78.079,37.073L88.041,35.461C92.707,35.461 96.836,37.073 100.426,40.296C104.195,43.341 106.08,47.908 106.08,53.997C106.08,59.907 104.105,64.922 100.156,69.041C96.208,73.16 90.643,75.22 83.464,75.22C76.463,75.22 70.63,72.534 65.963,67.161C61.476,61.788 59.232,54.893 59.232,46.475C59.232,37.879 62.463,29.372 68.925,20.954C75.566,12.537 84.989,5.552 97.195,0L99.079,4.567C82.207,13.88 73.771,23.282 73.771,32.774C73.771,35.64 75.207,37.073 78.079,37.073Z" stroke="#002244" stroke-width="1.223" stroke-miterlimit="3.999327"/>
</svg>
