<svg width="28" height="30" viewBox="0 0 28 30" fill="none" xmlns="http://www.w3.org/2000/svg" xmlns:xlink="http://www.w3.org/1999/xlink">
<path d="M26.034,12.481L20.462,16.526L17.704,18.533L16.325,19.535L2.614,29.488C5.196,25.677 6.557,21.185 6.53,16.494C6.522,16.228 6.512,15.964 6.503,15.691L8.538,14.219L6.265,13.171C6.226,12.916 6.185,12.648 6.132,12.395C6.091,12.158 6.046,11.929 5.989,11.707C5.966,11.551 5.926,11.4 5.889,11.258C5.856,11.095 5.823,10.956 5.776,10.808C5.505,9.738 5.159,8.704 4.733,7.696C4.653,7.497 4.567,7.309 4.479,7.114C4.05,6.171 3.562,5.261 3.007,4.389C2.911,4.213 2.794,4.043 2.694,3.873C2.442,3.51 2.194,3.148 1.923,2.8C1.8,2.625 1.679,2.463 1.542,2.303C1.401,2.123 1.265,1.95 1.116,1.792C0.985,1.617 0.841,1.452 0.688,1.297C0.458,1.03 0.221,0.767 -0.035,0.512L2.707,1.777L26.034,12.481Z" fill="#002244"/>
</svg>
