<svg width="84" height="84" viewBox="0 0 84 84" fill="none" xmlns="http://www.w3.org/2000/svg" xmlns:xlink="http://www.w3.org/1999/xlink">
<path d="M41.254,0.936C18.576,0.936 0.191,19.32 0.191,41.999C0.191,64.677 18.576,83.061 41.254,83.061C63.933,83.061 82.317,64.677 82.317,41.999C82.317,19.32 63.933,0.936 41.254,0.936ZM57.957,34.573C57.974,34.924 57.979,35.275 57.979,35.617C57.979,46.31 49.847,58.633 34.971,58.633C30.575,58.641 26.27,57.378 22.575,54.998C23.204,55.075 23.85,55.105 24.504,55.105C28.294,55.105 31.78,53.817 34.547,51.644C32.861,51.611 31.227,51.053 29.873,50.047C28.518,49.041 27.512,47.637 26.993,46.032C28.205,46.263 29.452,46.214 30.642,45.891C28.811,45.521 27.165,44.529 25.983,43.084C24.8,41.638 24.154,39.828 24.153,37.961L24.153,37.863C25.244,38.466 26.493,38.833 27.819,38.876C26.103,37.734 24.888,35.979 24.423,33.971C23.958,31.962 24.277,29.852 25.317,28.072C27.348,30.57 29.882,32.613 32.753,34.07C35.625,35.527 38.77,36.364 41.986,36.528C41.577,34.793 41.753,32.971 42.486,31.346C43.219,29.721 44.469,28.384 46.041,27.542C47.613,26.701 49.418,26.402 51.177,26.693C52.936,26.984 54.55,27.847 55.767,29.15C57.577,28.791 59.313,28.127 60.9,27.186C60.297,29.06 59.034,30.652 57.346,31.665C58.949,31.472 60.515,31.04 61.991,30.386C60.906,32.011 59.54,33.429 57.957,34.573L57.957,34.573Z" fill="#FFFFFF"/>
</svg>
