<svg width="86" height="86" viewBox="0 0 86 86" fill="none" xmlns="http://www.w3.org/2000/svg" xmlns:xlink="http://www.w3.org/1999/xlink">
<path d="M-0.162,42.238C-0.162,63.504 15.283,81.187 35.483,84.773L35.483,53.88L24.79,53.88L24.79,41.999L35.483,41.999L35.483,32.493C35.483,21.799 42.373,15.861 52.119,15.861C55.205,15.861 58.535,16.335 61.621,16.809L61.621,27.741L56.157,27.741C50.928,27.741 49.741,30.354 49.741,33.683L49.741,41.999L61.147,41.999L59.247,53.88L49.741,53.88L49.741,84.773C69.941,81.187 85.386,63.507 85.386,42.238C85.386,18.581 66.138,-0.774 42.612,-0.774C19.087,-0.774 -0.162,18.581 -0.162,42.238Z" clip-rule="evenodd" fill-rule="evenodd" fill="#FFFFFF"/>
</svg>
