<svg width="82" height="84" viewBox="0 0 82 84" fill="none" xmlns="http://www.w3.org/2000/svg" xmlns:xlink="http://www.w3.org/1999/xlink">
<path d="M40.933,0.936C18.255,0.936 -0.13,19.32 -0.13,41.999C-0.13,64.677 18.255,83.061 40.933,83.061C63.612,83.061 81.996,64.677 81.996,41.999C81.996,19.32 63.612,0.936 40.933,0.936ZM30.881,59.018L22.566,59.018L22.566,32.259L30.881,32.259L30.881,59.018ZM26.672,28.974C24.046,28.974 22.348,27.113 22.348,24.812C22.348,22.464 24.097,20.659 26.779,20.659C29.461,20.659 31.104,22.464 31.155,24.812C31.155,27.113 29.461,28.974 26.672,28.974ZM61.251,59.018L52.935,59.018L52.935,44.189C52.935,40.737 51.729,38.393 48.722,38.393C46.425,38.393 45.061,39.98 44.458,41.507C44.235,42.05 44.18,42.82 44.18,43.586L44.18,59.014L35.86,59.014L35.86,40.793C35.86,37.452 35.753,34.659 35.642,32.255L42.867,32.255L43.247,35.972L43.414,35.972C44.509,34.227 47.191,31.652 51.678,31.652C57.149,31.652 61.251,35.317 61.251,43.196L61.251,59.018L61.251,59.018Z" fill="#FFFFFF"/>
</svg>
